<?xml version="1.0" encoding="utf-8"?>
<svg xmlns="http://www.w3.org/2000/svg" style="margin: auto; background: rgba(0, 0, 0, 0) none repeat scroll 0% 0%; display: block; shape-rendering: auto;" width="278" height="250" preserveAspectRatio="xMidYMid">
<style type="text/css">
  text {
    text-anchor: middle; font-size: 47px; opacity: 0;
  }
</style>
<g style="transform-origin:139px 125px;transform:scale(1)">
<g transform="translate(139,125)">
  <g transform="translate(0,0)"><g class="path" style="transform: scale(1); transform-origin: -70.0217px 0.437416px 0px; animation: 1s linear -0.605s infinite normal forwards running beat-6fff9f89-65dd-46a4-938d-0a8ead631e24;"><path d="M40.61-34.87L40.61-34.87L40.61-34.87Q38.16-31.35 35.16-25.94L35.16-25.94L35.16-25.94Q32.15-20.54 30.36-16.87L30.36-16.87L28.58-13.21L28.58-13.21Q23.73-3.15 23.73 1.22L23.73 1.22L23.73 1.22Q23.73 1.32 23.76 1.60L23.76 1.60L23.76 1.60Q23.78 1.88 23.78 2.07L23.78 2.07L23.78 2.07Q23.78 2.82 23.36 2.82L23.36 2.82L23.36 2.82Q22.56 2.82 21.62 1.43L21.62 1.43L21.62 1.43Q20.68 0.05 20.68-2.26L20.68-2.26L20.68-2.26Q20.68-4.37 21.69-7.43L21.69-7.43L21.69-7.43Q22.70-10.48 24.68-14.41L24.68-14.41L24.68-14.41Q26.65-18.33 27.99-20.73L27.99-20.73L27.99-20.73Q29.33-23.12 31.54-26.98L31.54-26.98L31.54-26.98Q31.68-27.26 31.68-27.40L31.68-27.40L31.68-27.40Q31.58-27.64 31.44-27.64L31.44-27.64L31.44-27.64Q31.16-27.64 30.88-27.40L30.88-27.40L30.88-27.40Q28.11-25.14 23.59-19.74L23.59-19.74L23.59-19.74Q19.08-14.34 15.98-10.06L15.98-10.06L12.83-5.78L12.83-5.78Q12.08-4.65 11.61-4.65L11.61-4.65L11.61-4.65Q11.47-4.65 11.37-4.75L11.37-4.75L11.37-4.75Q11.28-4.84 11.23-5.01L11.23-5.01L11.23-5.01Q11.19-5.17 11.16-5.31L11.16-5.31L11.16-5.31Q11.14-5.45 11.14-5.55L11.14-5.55L11.14-5.64L11.14-5.64Q11.47-8.55 12.10-13.77L12.10-13.77L12.10-13.77Q12.74-18.99 13.16-22.56L13.16-22.56L13.16-22.56Q13.58-26.13 13.58-26.23L13.58-26.23L13.58-26.23Q13.58-26.70 13.39-26.70L13.39-26.70L13.39-26.70Q13.30-26.70 13.14-26.55L13.14-26.55L13.14-26.55Q12.97-26.41 12.88-26.27L12.88-26.27L12.78-26.13L12.78-26.13Q10.76-23.12 8.46-18.35L8.46-18.35L8.46-18.35Q6.16-13.58 4.75-9.92L4.75-9.92L4.75-9.92Q3.71-7.29 2.63-5.10L2.63-5.10L2.63-5.10Q1.55-2.91 0.73-1.72L0.73-1.72L0.73-1.72Q-0.09-0.52-0.78 0.31L-0.78 0.31L-0.78 0.31Q-1.46 1.13-1.83 1.41L-1.83 1.41L-2.21 1.69L-2.21 1.69Q-2.73 2.12-3.01 2.12L-3.01 2.12L-3.01 2.12Q-3.29 2.12-3.29 1.65L-3.29 1.65L-3.24 1.22L-3.24 1.22Q-2.77-1.27 0.87-8.27L0.87-8.27L0.87-8.27Q4.51-15.28 7.94-21.06L7.94-21.06L11.37-26.79L13.96-31.25L13.96-31.25Q15.89-36.75 16.92-36.75L16.92-36.75L16.92-36.75Q17.63-36.75 17.63-34.36L17.63-34.36L17.63-34.36Q16.17-16.87 16.17-14.38L16.17-14.38L16.17-14.38Q16.17-13.68 16.45-13.68L16.45-13.68L16.45-13.68Q16.73-13.68 17.11-14.19L17.11-14.19L17.11-14.19Q17.72-14.99 18.80-16.36L18.80-16.36L18.80-16.36Q19.88-17.72 22.94-21.24L22.94-21.24L22.94-21.24Q25.99-24.77 28.69-27.59L28.69-27.59L28.69-27.59Q31.40-30.41 34.59-32.99L34.59-32.99L34.59-32.99Q37.79-35.58 39.86-36.14L39.86-36.14L39.86-36.14Q40.33-36.24 40.47-36.24L40.47-36.24L40.47-36.24Q41.03-36.24 41.03-35.81L41.03-35.81L41.03-35.81Q41.03-35.44 40.61-34.87" fill="#ffffff" stroke="none" stroke-width="none" transform="translate(-88.89166259765625,17.402416280110685)" style="fill: rgb(255, 255, 255);"></path></g><g class="path" style="transform: scale(1); transform-origin: -54.3717px 20.7624px 0px; animation: 1s linear -0.55s infinite normal forwards running beat-6fff9f89-65dd-46a4-938d-0a8ead631e24;"><path d="M38.26-6.67L38.26-6.67L40.23-10.53L40.23-10.53Q40.23-10.67 40.14-10.67L40.14-10.67L40.14-10.67Q40.04-10.67 39.90-10.53L39.90-10.53L39.90-10.53Q38.16-8.51 36.24-6.56L36.24-6.56L36.24-6.56Q34.31-4.61 33.28-3.67L33.28-3.67L32.24-2.73L32.24-2.73Q28.72 0.61 27.26 0.61L27.26 0.61L27.26 0.61Q26.60 0.61 26.60-0.23L26.60-0.23L26.60-0.23Q26.60-1.18 27.35-3.08L27.35-3.08L27.35-3.08Q28.11-4.98 28.86-6.39L28.86-6.39L29.61-7.85L29.61-7.85Q33.56-15.23 35.44-17.72L35.44-17.72L35.44-17.72Q36.38-18.94 37.74-19.76L37.74-19.76L37.74-19.76Q39.10-20.59 39.86-20.59L39.86-20.59L39.86-20.59Q40.33-20.59 40.33-20.26L40.33-20.26L40.33-20.26Q40.33-20.07 40.14-19.74L40.14-19.74L40.14-19.74Q40.04-19.55 38.21-16.61L38.21-16.61L38.21-16.61Q36.38-13.68 35.25-11.56L35.25-11.56L35.25-11.56Q32.15-5.88 32.15-5.03L32.15-5.03L32.15-5.03Q32.15-4.70 32.43-4.70L32.43-4.70L32.43-4.70Q32.85-4.70 33.89-5.55L33.89-5.55L33.89-5.55Q36.94-8.18 40.61-12.64L40.61-12.64L40.61-12.64Q42.63-14.80 44.84-18.28L44.84-18.28L44.84-18.28Q45.45-19.22 46.65-19.90L46.65-19.90L46.65-19.90Q47.85-20.59 48.83-20.59L48.83-20.59L48.83-20.59Q49.26-20.59 49.26-20.21L49.26-20.21L48.88-19.32L48.88-19.32Q48.22-18.14 45.94-14.17L45.94-14.17L45.94-14.17Q43.66-10.20 43.38-9.68L43.38-9.68L43.38-9.68Q43.00-8.98 41.67-6.65L41.67-6.65L41.67-6.65Q40.33-4.32 39.76-3.34L39.76-3.34L39.76-3.34Q42.72-5.73 44.65-7.47L44.65-7.47L44.65-7.47Q46.72-9.63 49.49-12.78L49.49-12.78L49.49-12.78Q49.63-12.93 49.73-12.93L49.73-12.93L49.73-12.93Q49.82-12.93 49.82-12.74L49.82-12.74L49.82-12.74Q49.82-11.84 49.11-11.00L49.11-11.00L49.11-11.00Q47.05-8.74 45.54-7.14L45.54-7.14L45.54-7.14Q43.57-5.08 38.49-1.13L38.49-1.13L37.27 1.13L37.27 1.13Q28.20 17.81 24.77 22.84L24.77 22.84L24.77 22.84Q24.44 23.36 23.92 24.09L23.92 24.09L23.92 24.09Q23.41 24.82 22.23 26.06L22.23 26.06L22.23 26.06Q21.06 27.31 20.35 27.31L20.35 27.31L20.35 27.31Q19.22 27.31 19.22 24.06L19.22 24.06L19.22 24.06Q19.22 19.27 22.65 13.63L22.65 13.63L22.65 13.63Q26.37 7.57 34.12 1.18L34.12 1.18L34.12 1.18Q35.67-1.65 38.26-6.67zM23.83 13.54L23.83 13.54L23.83 13.54Q23.45 14.10 22.94 15.02L22.94 15.02L22.94 15.02Q22.42 15.93 21.53 18.17L21.53 18.17L21.53 18.17Q20.63 20.40 20.63 21.90L20.63 21.90L20.63 21.90Q20.63 22.70 20.91 22.70L20.91 22.70L20.91 22.70Q21.15 22.70 21.62 22.25L21.62 22.25L21.62 22.25Q22.09 21.81 22.42 21.34L22.42 21.34L22.75 20.87L22.75 20.87Q27.40 13.58 32.85 3.48L32.85 3.48L32.85 3.48Q26.74 8.84 23.83 13.54" fill="#ffffff" stroke="none" stroke-width="none" transform="translate(-88.89166259765625,17.402416280110685)" style="fill: rgb(255, 255, 255);"></path></g><g class="path" style="transform: scale(1); transform-origin: -21.5417px 0.907417px 0px; animation: 1s linear -0.495s infinite normal forwards running beat-6fff9f89-65dd-46a4-938d-0a8ead631e24;"><path d="M64.95-15.18L64.95-15.18L64.95-15.18Q64.63-14.57 61.01-7.24L61.01-7.24L61.01-7.24Q58.61-2.35 56.19 0.16L56.19 0.16L56.19 0.16Q53.77 2.68 52.50 2.68L52.50 2.68L52.50 2.68Q51.93 2.68 51.93 2.16L51.93 2.16L52.08 1.60L52.08 1.60Q52.59 0.19 55.30-5.03L55.30-5.03L55.30-5.03Q58.00-10.25 60.35-14.29L60.35-14.29L60.35-14.29Q62.56-18.14 64.67-21.74L64.67-21.74L64.67-21.74Q66.79-25.33 67.82-27.02L67.82-27.02L68.85-28.72L68.85-28.72Q68.95-28.86 69.09-29.09L69.09-29.09L69.09-29.09Q69.23-29.33 69.72-29.94L69.72-29.94L69.72-29.94Q70.22-30.55 70.73-31.00L70.73-31.00L70.73-31.00Q71.25-31.44 71.96-31.82L71.96-31.82L71.96-31.82Q72.66-32.20 73.32-32.20L73.32-32.20L73.32-32.20Q73.93-32.20 73.93-31.87L73.93-31.87L73.93-31.87Q73.93-31.44 73.37-30.64L73.37-30.64L73.37-30.64Q69.84-24.63 65.85-16.97L65.85-16.97L65.85-16.97Q65.80-16.87 65.80-16.78L65.80-16.78L65.80-16.78Q65.80-16.64 65.99-16.64L65.99-16.64L65.99-16.64Q68.95-16.64 71.46-17.77L71.46-17.77L71.46-17.77Q73.98-18.89 75.55-20.70L75.55-20.70L75.55-20.70Q77.13-22.51 78.00-24.58L78.00-24.58L78.00-24.58Q78.87-26.65 78.87-28.67L78.87-28.67L78.87-28.67Q78.87-31.54 76.70-32.99L76.70-32.99L76.70-32.99Q74.54-34.45 71.63-34.45L71.63-34.45L71.63-34.45Q69.42-34.45 67.33-33.79L67.33-33.79L67.33-33.79Q65.24-33.13 63.66-31.54L63.66-31.54L63.66-31.54Q62.09-29.94 62.09-27.73L62.09-27.73L62.09-27.73Q62.09-26.41 62.79-25.19L62.79-25.19L62.79-25.19Q63.03-24.72 63.03-24.53L63.03-24.53L63.03-24.53Q63.03-24.25 62.65-24.25L62.65-24.25L62.65-24.25Q62.56-24.25 62.27-24.35L62.27-24.35L62.27-24.35Q62.13-24.39 61.90-24.53L61.90-24.53L61.90-24.53Q61.66-24.68 61.05-25.10L61.05-25.10L61.05-25.10Q60.44-25.52 59.97-25.99L59.97-25.99L59.97-25.99Q59.50-26.46 59.13-27.24L59.13-27.24L59.13-27.24Q58.75-28.01 58.75-28.81L58.75-28.81L58.75-28.81Q58.75-31.73 62.35-33.70L62.35-33.70L62.35-33.70Q65.94-35.67 70.50-35.67L70.50-35.67L70.50-35.67Q72.71-35.67 74.71-35.30L74.71-35.30L74.71-35.30Q76.70-34.92 78.61-34.10L78.61-34.10L78.61-34.10Q80.51-33.28 81.64-31.73L81.64-31.73L81.64-31.73Q82.77-30.17 82.77-28.06L82.77-28.06L82.77-28.06Q82.77-24.91 81.15-22.40L81.15-22.40L81.15-22.40Q79.52-19.88 76.92-18.40L76.92-18.40L76.92-18.40Q74.31-16.92 71.35-16.14L71.35-16.14L71.35-16.14Q68.38-15.37 65.38-15.37L65.38-15.37L65.38-15.37Q65.33-15.42 65.24-15.42L65.24-15.42L65.24-15.42Q65.05-15.42 64.95-15.18" fill="#ffffff" stroke="none" stroke-width="none" transform="translate(-88.89166259765625,17.402416280110685)" style="fill: rgb(255, 255, 255);"></path></g><g class="path" style="transform: scale(1); transform-origin: -8.21666px 7.29742px 0px; animation: 1s linear -0.44s infinite normal forwards running beat-6fff9f89-65dd-46a4-938d-0a8ead631e24;"><path d="M90.62-16.54L90.62-16.54L90.62-16.54Q91.04-16.45 91.04-16.26L91.04-16.26L91.04-16.26Q91.04-15.98 90.66-15.60L90.66-15.60L90.66-15.60Q90.15-15.09 89.14-14.24L89.14-14.24L89.14-14.24Q88.13-13.39 87.94-13.21L87.94-13.21L87.28-12.31L87.28-12.31Q86.29-9.54 84.25-6.56L84.25-6.56L84.25-6.56Q82.20-3.57 79.27-1.32L79.27-1.32L79.27-1.32Q76.33 0.94 73.65 0.94L73.65 0.94L73.65 0.94Q70.31 0.94 70.31-3.15L70.31-3.15L70.31-3.15Q70.31-6.77 72.66-10.97L72.66-10.97L72.66-10.97Q75.01-15.18 78.75-18.17L78.75-18.17L78.75-18.17Q82.48-21.15 86.10-21.15L86.10-21.15L86.10-21.15Q88.74-21.15 88.74-19.08L88.74-19.08L88.74-19.08Q88.74-17.95 87.61-16.03L87.61-16.03L87.61-16.03Q87.56-15.98 87.56-15.89L87.56-15.89L87.56-15.89Q87.56-15.79 87.66-15.79L87.66-15.79L87.66-15.79Q89.39-16.50 90.62-16.54zM86.15-15.42L86.15-15.42L86.15-15.42Q86.53-17.06 86.53-17.95L86.53-17.95L86.53-17.95Q86.53-19.93 85.21-19.93L85.21-19.93L85.21-19.93Q83.38-19.93 80.65-16.54L80.65-16.54L80.65-16.54Q77.93-13.16 75.98-8.93L75.98-8.93L75.98-8.93Q74.02-4.70 74.02-2.26L74.02-2.26L74.02-2.26Q74.02-0.47 75.29-0.47L75.29-0.47L75.29-0.47Q77.27-0.47 80.02-4.42L80.02-4.42L80.02-4.42Q82.77-8.37 83.33-12.36L83.33-12.36L83.33-12.36Q83.28-12.46 83.28-12.64L83.28-12.64L83.28-12.64Q83.28-14.01 85.73-15.09L85.73-15.09L85.73-15.09Q86.10-15.23 86.15-15.42" fill="#ffffff" stroke="none" stroke-width="none" transform="translate(-88.89166259765625,17.402416280110685)" style="fill: rgb(255, 255, 255);"></path></g><g class="path" style="transform: scale(1); transform-origin: 5.74334px 7.36742px 0px; animation: 1s linear -0.385s infinite normal forwards running beat-6fff9f89-65dd-46a4-938d-0a8ead631e24;"><path d="M98.23-9.73L98.23-9.73L98.23-9.73Q97.85-9.73 97.85-10.01L97.85-10.01L97.85-10.01Q97.85-10.15 97.99-10.39L97.99-10.39L97.99-10.39Q100.77-14.71 100.77-16.31L100.77-16.31L100.77-16.31Q100.77-16.73 100.44-16.73L100.44-16.73L100.44-16.73Q99.03-16.73 93.81-10.34L93.81-10.34L93.81-10.34Q92.26-8.37 90.92-6.25L90.92-6.25L90.92-6.25Q89.58-4.14 89.06-3.01L89.06-3.01L88.50-1.93L88.50-1.93Q87.94-0.80 86.76 0.16L86.76 0.16L86.76 0.16Q85.59 1.13 84.32 1.13L84.32 1.13L84.32 1.13Q83.66 1.13 83.66 0.80L83.66 0.80L83.66 0.80Q83.66 0.52 84.06-0.38L84.06-0.38L84.06-0.38Q84.46-1.27 85.02-2.35L85.02-2.35L85.02-2.35Q85.59-3.43 86.15-4.46L86.15-4.46L86.15-4.46Q86.71-5.50 87.09-6.20L87.09-6.20L87.51-6.91L92.45-15.51L92.45-15.51Q95.32-20.91 98.46-20.91L98.46-20.91L98.46-20.91Q98.89-20.91 98.89-20.59L98.89-20.59L98.89-20.59Q98.89-20.16 96.84-17.08L96.84-17.08L96.84-17.08Q94.80-14.01 94.47-13.16L94.47-13.16L94.47-13.16Q94.38-12.88 94.38-12.83L94.38-12.83L94.38-12.83Q94.38-12.74 94.47-12.74L94.47-12.74L94.47-12.74Q94.56-12.74 94.80-12.97L94.80-12.97L94.80-12.97Q98.32-16.97 102.27-20.07L102.27-20.07L102.27-20.07Q102.51-20.30 103.31-20.75L103.31-20.75L103.31-20.75Q104.10-21.20 104.72-21.20L104.72-21.20L104.72-21.20Q105.61-21.20 105.61-19.65L105.61-19.65L105.61-19.65Q105.61-17.95 104.48-15.60L104.48-15.60L104.48-15.60Q103.35-13.25 101.43-11.47L101.43-11.47L101.24-11.28L101.24-11.28Q101.05-11.14 100.84-10.97L100.84-10.97L100.84-10.97Q100.63-10.81 100.30-10.57L100.30-10.57L100.30-10.57Q99.97-10.34 99.64-10.18L99.64-10.18L99.64-10.18Q99.31-10.01 98.93-9.87L98.93-9.87L98.93-9.87Q98.56-9.73 98.23-9.73" fill="#ffffff" stroke="none" stroke-width="none" transform="translate(-88.89166259765625,17.402416280110685)" style="fill: rgb(255, 255, 255);"></path></g><g class="path" style="transform: scale(1); transform-origin: 22.2883px -1.77258px 0px; animation: 1s linear -0.33s infinite normal forwards running beat-6fff9f89-65dd-46a4-938d-0a8ead631e24;"><path d="M108.33-7.10L108.33-7.10L108.33-7.10Q110.31-9.07 113.55-12.78L113.55-12.78L113.55-12.78Q113.69-12.93 113.79-12.93L113.79-12.93L113.79-12.93Q113.88-12.93 113.88-12.74L113.88-12.74L113.88-12.74Q113.88-11.84 113.18-11.00L113.18-11.00L113.18-11.00Q109.70-7.14 107.02-4.56L107.02-4.56L107.02-4.56Q101.38 0.89 99.55 0.89L99.55 0.89L99.55 0.89Q98.89 0.89 98.89 0.05L98.89 0.05L98.89 0.05Q98.89-0.94 99.64-2.91L99.64-2.91L99.64-2.91Q100.39-4.89 101.14-6.39L101.14-6.39L101.90-7.85L101.90-7.85Q102.98-9.78 105.47-14.43L105.47-14.43L105.47-14.43Q107.96-19.08 110.29-23.22L110.29-23.22L110.29-23.22Q112.61-27.35 114.68-30.69L114.68-30.69L110.97-30.69L110.97-30.69Q110.50-30.69 110.50-30.93L110.50-30.93L110.50-30.93Q110.50-31.16 110.87-31.40L110.87-31.40L110.87-31.40Q111.25-31.63 111.67-31.63L111.67-31.63L111.67-31.63Q112.71-31.63 115.29-31.68L115.29-31.68L115.29-31.68Q117.59-35.30 119.24-37.41L119.24-37.41L119.24-37.41Q120.70-39.24 121.26-39.24L121.26-39.24L121.26-39.24Q121.59-39.24 121.59-38.82L121.59-38.82L121.59-38.82Q121.59-37.84 119.80-34.59L119.80-34.59L118.20-31.68L123.05-31.68L123.05-31.68Q123.47-31.68 123.47-31.44L123.47-31.44L123.47-31.44Q123.47-30.69 122.11-30.69L122.11-30.69L117.69-30.69L117.69-30.69Q106.83-10.11 106.27-9.12L106.27-9.12L106.27-9.12Q104.29-5.50 104.29-4.42L104.29-4.42L104.29-4.42Q104.29-4.09 104.53-4.09L104.53-4.09L104.53-4.09Q105.19-4.09 108.33-7.10" fill="#ffffff" stroke="none" stroke-width="none" transform="translate(-88.89166259765625,17.402416280110685)" style="fill: rgb(255, 255, 255);"></path></g><g class="path" style="transform: scale(1); transform-origin: 30.6283px 5.13242px 0px; animation: 1s linear -0.275s infinite normal forwards running beat-6fff9f89-65dd-46a4-938d-0a8ead631e24;"><path d="M116.98-18.99L115.85-19.27L115.85-19.27Q115.57-19.41 115.57-19.60L115.57-19.60L115.57-19.60Q115.57-19.88 116.09-19.88L116.09-19.88L117.50-19.88L117.50-19.88Q122.39-27.78 125.49-31.44L125.49-31.44L125.49-31.44Q128.73-35.20 131.93-37.06L131.93-37.06L131.93-37.06Q135.13-38.92 136.86-38.92L136.86-38.92L136.86-38.92Q137.99-38.92 137.99-37.93L137.99-37.93L137.99-37.93Q137.99-35.77 135.76-33.53L135.76-33.53L135.76-33.53Q133.53-31.30 131.98-30.64L131.98-30.64L131.98-30.64Q131.69-30.55 131.60-30.55L131.60-30.55L131.60-30.55Q131.41-30.55 131.41-30.79L131.41-30.79L131.41-30.79Q131.41-30.93 131.55-31.16L131.55-31.16L131.55-31.16Q134.28-35.16 134.28-36.47L134.28-36.47L134.28-36.47Q134.28-36.80 134.00-36.80L134.00-36.80L134.00-36.80Q133.43-36.80 132.12-35.77L132.12-35.77L132.12-35.77Q128.92-33.37 120.93-19.88L120.93-19.88L124.55-19.88L124.55-19.88Q125.21-19.88 125.21-19.69L125.21-19.69L125.21-19.69Q125.21-19.46 124.86-19.18L124.86-19.18L124.86-19.18Q124.50-18.89 124.31-18.89L124.31-18.89L120.98-18.89L120.98-18.89Q120.32-18.89 120.32-18.57L120.32-18.57L120.32-18.57Q120.32-18.42 120.39-17.77L120.39-17.77L120.39-17.77Q120.46-17.11 120.46-16.73L120.46-16.73L120.46-16.73Q120.46-12.36 117.81-6.23L117.81-6.23L117.81-6.23Q115.15-0.09 110.92 5.55L110.92 5.55L110.92 5.55Q108.48 8.79 106.41 10.90L106.41 10.90L106.41 10.90Q104.34 13.02 103.28 13.70L103.28 13.70L103.28 13.70Q102.22 14.38 101.71 14.38L101.71 14.38L101.71 14.38Q101.05 14.38 101.05 13.49L101.05 13.49L101.05 13.49Q101.05 9.16 110.03-6.67L110.03-6.67L110.03-6.67Q110.03-6.72 110.92-8.37L110.92-8.37L110.92-8.37Q111.81-10.01 113.53-13.09L113.53-13.09L113.53-13.09Q115.24-16.17 116.98-18.99L116.98-18.99zM119.19-15.42L119.19-15.42L119.19-15.42Q119.19-16.07 119.05-16.64L119.05-16.64L119.05-16.64Q111.62-3.85 108.71 2.30L108.71 2.30L108.71 2.30Q106.03 7.85 106.03 8.79L106.03 8.79L106.03 8.79Q106.03 8.98 106.17 8.98L106.17 8.98L106.17 8.98Q106.83 8.98 109.42 5.92L109.42 5.92L109.42 5.92Q112.14 2.73 115.67-4.18L115.67-4.18L115.67-4.18Q119.19-11.09 119.19-15.42" fill="#ffffff" stroke="none" stroke-width="none" transform="translate(-88.89166259765625,17.402416280110685)" style="fill: rgb(255, 255, 255);"></path></g><g class="path" style="transform: scale(1); transform-origin: 40.8983px 7.29742px 0px; animation: 1s linear -0.22s infinite normal forwards running beat-6fff9f89-65dd-46a4-938d-0a8ead631e24;"><path d="M139.73-16.54L139.73-16.54L139.73-16.54Q140.15-16.45 140.15-16.26L140.15-16.26L140.15-16.26Q140.15-15.98 139.78-15.60L139.78-15.60L139.78-15.60Q139.26-15.09 138.25-14.24L138.25-14.24L138.25-14.24Q137.24-13.39 137.05-13.21L137.05-13.21L136.39-12.31L136.39-12.31Q135.41-9.54 133.36-6.56L133.36-6.56L133.36-6.56Q131.32-3.57 128.38-1.32L128.38-1.32L128.38-1.32Q125.44 0.94 122.76 0.94L122.76 0.94L122.76 0.94Q119.43 0.94 119.43-3.15L119.43-3.15L119.43-3.15Q119.43-6.77 121.78-10.97L121.78-10.97L121.78-10.97Q124.13-15.18 127.86-18.17L127.86-18.17L127.86-18.17Q131.60-21.15 135.22-21.15L135.22-21.15L135.22-21.15Q137.85-21.15 137.85-19.08L137.85-19.08L137.85-19.08Q137.85-17.95 136.72-16.03L136.72-16.03L136.72-16.03Q136.68-15.98 136.68-15.89L136.68-15.89L136.68-15.89Q136.68-15.79 136.77-15.79L136.77-15.79L136.77-15.79Q138.51-16.50 139.73-16.54zM135.27-15.42L135.27-15.42L135.27-15.42Q135.64-17.06 135.64-17.95L135.64-17.95L135.64-17.95Q135.64-19.93 134.33-19.93L134.33-19.93L134.33-19.93Q132.49-19.93 129.77-16.54L129.77-16.54L129.77-16.54Q127.04-13.16 125.09-8.93L125.09-8.93L125.09-8.93Q123.14-4.70 123.14-2.26L123.14-2.26L123.14-2.26Q123.14-0.47 124.41-0.47L124.41-0.47L124.41-0.47Q126.38-0.47 129.13-4.42L129.13-4.42L129.13-4.42Q131.88-8.37 132.45-12.36L132.45-12.36L132.45-12.36Q132.40-12.46 132.40-12.64L132.40-12.64L132.40-12.64Q132.40-14.01 134.84-15.09L134.84-15.09L134.84-15.09Q135.22-15.23 135.27-15.42" fill="#ffffff" stroke="none" stroke-width="none" transform="translate(-88.89166259765625,17.402416280110685)" style="fill: rgb(255, 255, 255);"></path></g><g class="path" style="transform: scale(1); transform-origin: 61.2233px -3.72258px 0px; animation: 1s linear -0.165s infinite normal forwards running beat-6fff9f89-65dd-46a4-938d-0a8ead631e24;"><path d="M149.22-22.89L149.22-22.89L149.22-22.89Q152.56-25.24 155.22-28.22L155.22-28.22L155.22-28.22Q157.87-31.21 159.26-33.72L159.26-33.72L159.26-33.72Q160.65-36.24 161.35-38.07L161.35-38.07L161.35-38.07Q162.06-39.90 162.06-40.70L162.06-40.70L162.06-40.70Q162.06-41.17 161.73-41.17L161.73-41.17L161.73-41.17Q161.07-41.17 160.13-40.23L160.13-40.23L160.13-40.23Q158.34-38.45 156.09-35.06L156.09-35.06L156.09-35.06Q153.83-31.68 152.44-29.26L152.44-29.26L152.44-29.26Q151.06-26.84 148.85-22.80L148.85-22.80L148.85-22.80Q149.04-22.80 149.22-22.89zM144.20-7.10L144.20-7.10L144.20-7.10Q146.17-9.07 149.41-12.78L149.41-12.78L149.41-12.78Q149.55-12.93 149.65-12.93L149.65-12.93L149.65-12.93Q149.74-12.93 149.74-12.74L149.74-12.74L149.74-12.74Q149.74-11.84 149.04-11.00L149.04-11.00L149.04-11.00Q145.56-7.14 142.88-4.56L142.88-4.56L142.88-4.56Q137.00 0.99 135.41 0.99L135.41 0.99L135.41 0.99Q134.70 0.99 134.70 0L134.70 0L134.70 0Q134.70-0.52 134.82-1.13L134.82-1.13L134.82-1.13Q134.94-1.74 135.22-2.47L135.22-2.47L135.22-2.47Q135.50-3.20 135.71-3.69L135.71-3.69L135.71-3.69Q135.92-4.18 136.32-5.10L136.32-5.10L136.32-5.10Q136.72-6.02 136.86-6.34L136.86-6.34L136.86-6.34Q138.18-9.31 144.95-21.95L144.95-21.95L144.95-21.95Q154.21-38.82 161.96-42.68L161.96-42.68L161.96-42.68Q163.09-43.24 164.22-43.24L164.22-43.24L164.22-43.24Q165.53-43.24 165.53-42.02L165.53-42.02L165.53-42.02Q165.53-39.20 163.61-35.84L163.61-35.84L163.61-35.84Q161.68-32.48 158.91-29.66L158.91-29.66L158.91-29.66Q156.13-26.84 153.48-24.72L153.48-24.72L153.48-24.72Q150.82-22.61 148.90-21.53L148.90-21.53L148.90-21.53Q148.61-21.43 148.38-21.10L148.38-21.10L148.38-21.10Q146.31-17.77 144.34-13.94L144.34-13.94L144.34-13.94Q142.36-10.11 141.38-7.90L141.38-7.90L140.44-5.73L140.44-5.73Q140.20-5.03 140.20-4.79L140.20-4.79L140.20-4.79Q140.20-4.37 140.53-4.37L140.53-4.37L140.53-4.37Q141.47-4.37 144.20-7.10" fill="#ffffff" stroke="none" stroke-width="none" transform="translate(-88.89166259765625,17.402416280110685)" style="fill: rgb(255, 255, 255);"></path></g><g class="path" style="transform: scale(1); transform-origin: 62.0533px 7.43742px 0px; animation: 1s linear -0.11s infinite normal forwards running beat-6fff9f89-65dd-46a4-938d-0a8ead631e24;"><path d="M151.43-4.56L151.43-4.56L151.43-4.56Q145.94 0.61 144.38 0.61L144.38 0.61L144.38 0.61Q143.59 0.61 143.59-0.47L143.59-0.47L143.59-0.47Q143.59-1.55 144.43-3.62L144.43-3.62L144.43-3.62Q145.28-5.69 146.12-7.24L146.12-7.24L146.97-8.74L146.97-8.74Q150.54-14.99 152.37-17.72L152.37-17.72L152.37-17.72Q153.17-18.89 154.42-19.72L154.42-19.72L154.42-19.72Q155.66-20.54 156.75-20.54L156.75-20.54L156.75-20.54Q157.12-20.54 157.12-20.21L157.12-20.21L157.12-20.21Q157.12-19.98 156.79-19.32L156.79-19.32L156.79-19.32Q156.23-18.28 154.02-14.38L154.02-14.38L154.02-14.38Q151.81-10.48 151.39-9.68L151.39-9.68L151.39-9.68Q149.46-6.30 149.46-5.17L149.46-5.17L149.46-5.17Q149.46-4.75 149.74-4.75L149.74-4.75L149.74-4.75Q150.21-4.75 152.75-7.10L152.75-7.10L152.75-7.10Q154.72-9.07 157.97-12.78L157.97-12.78L157.97-12.78Q158.11-12.93 158.20-12.93L158.20-12.93L158.20-12.93Q158.30-12.93 158.30-12.74L158.30-12.74L158.30-12.74Q158.30-11.84 157.59-11.00L157.59-11.00L157.59-11.00Q154.11-7.14 151.43-4.56" fill="#ffffff" stroke="none" stroke-width="none" transform="translate(-88.89166259765625,17.402416280110685)" style="fill: rgb(255, 255, 255);"></path></g><g class="path" style="transform: scale(1); transform-origin: 69.8983px -8.51758px 0px; animation: 1s linear -0.055s infinite normal forwards running beat-6fff9f89-65dd-46a4-938d-0a8ead631e24;"><path d="M157.69-23.22L157.69-23.22L157.69-23.22Q156.51-23.22 156.51-24.63L156.51-24.63L156.51-24.63Q156.51-25.94 157.50-27.28L157.50-27.28L157.50-27.28Q158.48-28.62 159.66-28.62L159.66-28.62L159.66-28.62Q161.07-28.62 161.07-27.02L161.07-27.02L161.07-27.02Q161.07-25.71 159.99-24.46L159.99-24.46L159.99-24.46Q158.91-23.22 157.69-23.22" fill="#ffffff" stroke="none" stroke-width="none" transform="translate(-88.89166259765625,17.402416280110685)" style="fill: rgb(255, 255, 255);"></path></g><g class="path" style="transform: scale(1); transform-origin: 75.2083px 7.29742px 0px; animation: 1s linear 0s infinite normal forwards running beat-6fff9f89-65dd-46a4-938d-0a8ead631e24;"><path d="M174.04-16.54L174.04-16.54L174.04-16.54Q174.46-16.45 174.46-16.26L174.46-16.26L174.46-16.26Q174.46-15.98 174.09-15.60L174.09-15.60L174.09-15.60Q173.57-15.09 172.56-14.24L172.56-14.24L172.56-14.24Q171.55-13.39 171.36-13.21L171.36-13.21L170.70-12.31L170.70-12.31Q169.72-9.54 167.67-6.56L167.67-6.56L167.67-6.56Q165.63-3.57 162.69-1.32L162.69-1.32L162.69-1.32Q159.75 0.94 157.07 0.94L157.07 0.94L157.07 0.94Q153.74 0.94 153.74-3.15L153.74-3.15L153.74-3.15Q153.74-6.77 156.09-10.97L156.09-10.97L156.09-10.97Q158.44-15.18 162.17-18.17L162.17-18.17L162.17-18.17Q165.91-21.15 169.53-21.15L169.53-21.15L169.53-21.15Q172.16-21.15 172.16-19.08L172.16-19.08L172.16-19.08Q172.16-17.95 171.03-16.03L171.03-16.03L171.03-16.03Q170.99-15.98 170.99-15.89L170.99-15.89L170.99-15.89Q170.99-15.79 171.08-15.79L171.08-15.79L171.08-15.79Q172.82-16.50 174.04-16.54zM169.58-15.42L169.58-15.42L169.58-15.42Q169.95-17.06 169.95-17.95L169.95-17.95L169.95-17.95Q169.95-19.93 168.64-19.93L168.64-19.93L168.64-19.93Q166.80-19.93 164.08-16.54L164.08-16.54L164.08-16.54Q161.35-13.16 159.40-8.93L159.40-8.93L159.40-8.93Q157.45-4.70 157.45-2.26L157.45-2.26L157.45-2.26Q157.45-0.47 158.72-0.47L158.72-0.47L158.72-0.47Q160.69-0.47 163.44-4.42L163.44-4.42L163.44-4.42Q166.19-8.37 166.76-12.36L166.76-12.36L166.76-12.36Q166.71-12.46 166.71-12.64L166.71-12.64L166.71-12.64Q166.71-14.01 169.15-15.09L169.15-15.09L169.15-15.09Q169.53-15.23 169.58-15.42" fill="#ffffff" stroke="none" stroke-width="none" transform="translate(-88.89166259765625,17.402416280110685)" style="fill: rgb(255, 255, 255);"></path></g></g>
</g>
</g>
<style id="beat-6fff9f89-65dd-46a4-938d-0a8ead631e24" data-anikit="">@keyframes beat-6fff9f89-65dd-46a4-938d-0a8ead631e24
{
  0% {
    animation-timing-function: cubic-bezier(0.1028,0.2484,0.1372,0.849);
    transform: scale(1);
  }
  34% {
    animation-timing-function: cubic-bezier(0.7116,0.2095,0.8159,0.6876);
    transform: scale(1.2);
  }
  68% {
    animation-timing-function: cubic-bezier(0.1475,0.2888,0.294,0.883);
    transform: scale(1.0268);
  }
  84% {
    animation-timing-function: cubic-bezier(0.8176,0.2193,0.867,0.6889);
    transform: scale(1.0932);
  }
  100% {
    transform: scale(1);
  }
}</style></svg>